<svg width="18" height="18" viewBox="0 0 18 18" fill="none" xmlns="http://www.w3.org/2000/svg">
<path d="M12.75 15.75V12M5.25 15.75V12" stroke="#050925" stroke-width="1.5" stroke-linecap="round"/>
<path d="M11.625 9H6.37502C5.13752 9 4.51877 9 4.13402 9.4395C3.91952 9.684 3.82502 10.0125 3.78302 10.5008C3.72527 11.1758 3.69602 11.514 3.91877 11.757C4.14152 12 4.51127 12 5.25002 12H12.75C13.4888 12 13.8578 12 14.0805 11.757C14.304 11.514 14.2748 11.1765 14.2163 10.5008C14.175 10.0133 14.0798 9.68475 13.8653 9.4395C13.4813 9 12.8625 9 11.625 9ZM5.25002 6C5.25002 4.5975 5.25002 3.897 5.55152 3.375C5.74899 3.03299 6.033 2.74897 6.37502 2.5515C6.89702 2.25 7.59752 2.25 9.00002 2.25C10.4025 2.25 11.103 2.25 11.625 2.5515C11.967 2.74897 12.251 3.03299 12.4485 3.375C12.75 3.897 12.75 4.5975 12.75 6V9H5.25002V6Z" stroke="#050925" stroke-width="1.5"/>
</svg>
