<svg width="18" height="18" viewBox="0 0 18 18" fill="none" xmlns="http://www.w3.org/2000/svg">
<path d="M5.625 13.5V15M12.375 13.5V15M3.6 7.383C2.925 7.398 2.25 7.70325 2.25 8.25V11.25C2.25 12.4927 3.15675 13.5 4.275 13.5H13.725C14.8432 13.5 15.75 12.4927 15.75 11.25V8.25C15.75 7.641 15.075 7.368 14.4 7.383M3.6 7.383C4.275 7.368 4.95 7.641 4.95 8.25C4.95 9.27225 5.11875 10.5 6.45 10.5H11.55C12.8812 10.5 13.05 9.27225 13.05 8.25C13.05 7.7025 13.725 7.39875 14.4 7.383M3.6 7.383V5.25C3.6 4.00725 4.50675 3 5.625 3H12.375C13.4933 3 14.4 4.00725 14.4 5.25V7.383" stroke="#050925" stroke-width="1.5" stroke-linecap="round" stroke-linejoin="round"/>
</svg>
