<svg width="91" height="30" viewBox="0 0 91 30" fill="none" xmlns="http://www.w3.org/2000/svg">
<path d="M43.7661 14V3.92H45.4531V12.418H48.5681V3.92H50.2551V12.418H53.3771V3.92H55.0571V14H43.7661ZM56.3142 14L59.4922 3.92H61.9632L65.1412 14H63.4052L60.5212 4.956H60.8992L58.0502 14H56.3142ZM58.0852 11.816V10.241H63.3772V11.816H58.0852ZM67.9948 14V5.502H64.7328V3.92H72.9438V5.502H69.6818V14H67.9948ZM77.948 2.751V1.211H79.488V2.751H77.948ZM75.057 2.751V1.211H76.597V2.751H75.057ZM74.063 14V3.92H80.573V5.502H75.75V7.987H79.733V9.569H75.75V12.418H80.573V14H74.063ZM82.2525 14V3.92H86.4175C86.5155 3.92 86.6415 3.92467 86.7955 3.934C86.9495 3.93867 87.0918 3.95267 87.2225 3.976C87.8058 4.06467 88.2865 4.25833 88.6645 4.557C89.0471 4.85567 89.3295 5.23367 89.5115 5.691C89.6981 6.14367 89.7915 6.64767 89.7915 7.203C89.7915 7.75367 89.6981 8.25767 89.5115 8.715C89.3248 9.16767 89.0401 9.54333 88.6575 9.842C88.2795 10.1407 87.8011 10.3343 87.2225 10.423C87.0918 10.4417 86.9471 10.4557 86.7885 10.465C86.6345 10.4743 86.5108 10.479 86.4175 10.479H83.9395V14H82.2525ZM83.9395 8.904H86.3475C86.4408 8.904 86.5458 8.89933 86.6625 8.89C86.7791 8.88067 86.8865 8.862 86.9845 8.834C87.2645 8.764 87.4838 8.64033 87.6425 8.463C87.8058 8.28567 87.9201 8.085 87.9855 7.861C88.0555 7.637 88.0905 7.41767 88.0905 7.203C88.0905 6.98833 88.0555 6.769 87.9855 6.545C87.9201 6.31633 87.8058 6.11333 87.6425 5.936C87.4838 5.75867 87.2645 5.635 86.9845 5.565C86.8865 5.537 86.7791 5.52067 86.6625 5.516C86.5458 5.50667 86.4408 5.502 86.3475 5.502H83.9395V8.904ZM49.9868 28V17.92H56.7278V19.502H51.6738V21.672H54.1518C54.2452 21.672 54.3688 21.6767 54.5228 21.686C54.6815 21.6907 54.8262 21.7 54.9568 21.714C55.5215 21.7793 55.9928 21.959 56.3708 22.253C56.7535 22.547 57.0405 22.918 57.2318 23.366C57.4278 23.814 57.5258 24.304 57.5258 24.836C57.5258 25.368 57.4302 25.8603 57.2388 26.313C57.0475 26.761 56.7605 27.132 56.3778 27.426C55.9998 27.7153 55.5262 27.8927 54.9568 27.958C54.8262 27.972 54.6838 27.9837 54.5298 27.993C54.3758 27.9977 54.2498 28 54.1518 28H49.9868ZM51.6738 26.418H54.0818C54.1752 26.418 54.2802 26.4133 54.3968 26.404C54.5135 26.3947 54.6208 26.3807 54.7188 26.362C55.1388 26.2733 55.4282 26.0773 55.5868 25.774C55.7455 25.4707 55.8248 25.158 55.8248 24.836C55.8248 24.5093 55.7455 24.1967 55.5868 23.898C55.4282 23.5947 55.1388 23.3987 54.7188 23.31C54.6208 23.2867 54.5135 23.2727 54.3968 23.268C54.2802 23.2587 54.1752 23.254 54.0818 23.254H51.6738V26.418ZM58.9282 28V17.92H65.4382V19.502H60.6152V21.987H64.5982V23.569H60.6152V26.418H65.4382V28H58.9282ZM67.1177 28V17.92H71.2827C71.3807 17.92 71.5067 17.9247 71.6607 17.934C71.8147 17.9387 71.957 17.9527 72.0877 17.976C72.671 18.0647 73.1517 18.2583 73.5297 18.557C73.9124 18.8557 74.1947 19.2337 74.3767 19.691C74.5634 20.1437 74.6567 20.6477 74.6567 21.203C74.6567 21.7537 74.5634 22.2577 74.3767 22.715C74.19 23.1677 73.9054 23.5433 73.5227 23.842C73.1447 24.1407 72.6664 24.3343 72.0877 24.423C71.957 24.4417 71.8124 24.4557 71.6537 24.465C71.4997 24.4743 71.376 24.479 71.2827 24.479H68.8047V28H67.1177ZM68.8047 22.904H71.2127C71.306 22.904 71.411 22.8993 71.5277 22.89C71.6444 22.8807 71.7517 22.862 71.8497 22.834C72.1297 22.764 72.349 22.6403 72.5077 22.463C72.671 22.2857 72.7854 22.085 72.8507 21.861C72.9207 21.637 72.9557 21.4177 72.9557 21.203C72.9557 20.9883 72.9207 20.769 72.8507 20.545C72.7854 20.3163 72.671 20.1133 72.5077 19.936C72.349 19.7587 72.1297 19.635 71.8497 19.565C71.7517 19.537 71.6444 19.5207 71.5277 19.516C71.411 19.5067 71.306 19.502 71.2127 19.502H68.8047V22.904ZM77.3891 28L78.7191 25.284L75.2401 17.92H77.1441L79.6011 23.506L82.1351 17.92H83.9341L79.1881 28H77.3891Z" fill="#050925"/>
<path d="M4.68676 27.4583V10.375C9.53706 8.243 13.2961 5.96238 16.7737 1.83334C20.2513 5.96238 24.0103 8.243 28.8606 10.375V27.4583M4.68676 27.4583H1.23335M4.68676 27.4583H9.00351M28.8606 27.4583H32.314M28.8606 27.4583H24.5438M9.00351 27.4583H24.5438M9.00351 27.4583C13.4688 23.0406 15.9639 18.2231 16.7737 12.0833C17.5835 18.2231 20.0786 23.0406 24.5438 27.4583" stroke="#050925" stroke-width="2" stroke-linecap="round" stroke-linejoin="round"/>
</svg>
