<svg width="18" height="18" viewBox="0 0 18 18" fill="none" xmlns="http://www.w3.org/2000/svg">
<g clip-path="url(#clip0_39_296)">
<path d="M12 3.375H13.5C13.8978 3.375 14.2793 3.53304 14.5606 3.81434C14.8419 4.09564 15 4.47718 15 4.875V15.375C15 15.7728 14.8419 16.1544 14.5606 16.4357C14.2793 16.717 13.8978 16.875 13.5 16.875H4.49998C4.10216 16.875 3.72063 16.717 3.43932 16.4357C3.15802 16.1544 2.99998 15.7728 2.99998 15.375V4.875C2.99998 4.47718 3.15802 4.09564 3.43932 3.81434C3.72063 3.53304 4.10216 3.375 4.49998 3.375H5.99998" stroke="#050925" stroke-width="1.5" stroke-linecap="round" stroke-linejoin="round"/>
<path d="M11.25 1.5H6.75002C6.3358 1.5 6.00002 1.83579 6.00002 2.25V3.75C6.00002 4.16421 6.3358 4.5 6.75002 4.5H11.25C11.6642 4.5 12 4.16421 12 3.75V2.25C12 1.83579 11.6642 1.5 11.25 1.5Z" stroke="#050925" stroke-width="1.5" stroke-linecap="round" stroke-linejoin="round"/>
</g>
<defs>
<clipPath id="clip0_39_296">
<rect width="18" height="18" fill="white"/>
</clipPath>
</defs>
</svg>
