<svg width="36" height="36" viewBox="0 0 36 36" fill="none" xmlns="http://www.w3.org/2000/svg">
<circle opacity="0.3" cx="18" cy="18" r="18" fill="#3392FF"/>
<path d="M20.3333 13.625H21.4999C21.8093 13.625 22.1061 13.7479 22.3249 13.9667C22.5437 14.1855 22.6666 14.4823 22.6666 14.7917V22.9584C22.6666 23.2678 22.5437 23.5645 22.3249 23.7833C22.1061 24.0021 21.8093 24.125 21.4999 24.125H14.4999C14.1905 24.125 13.8938 24.0021 13.675 23.7833C13.4562 23.5645 13.3333 23.2678 13.3333 22.9584V14.7917C13.3333 14.4823 13.4562 14.1855 13.675 13.9667C13.8938 13.7479 14.1905 13.625 14.4999 13.625H15.6666" stroke="#3392FF" stroke-width="1.5" stroke-linecap="round" stroke-linejoin="round"/>
<path d="M19.7501 12.1667H16.2501C15.9279 12.1667 15.6667 12.4279 15.6667 12.75V13.9167C15.6667 14.2389 15.9279 14.5 16.2501 14.5H19.7501C20.0722 14.5 20.3334 14.2389 20.3334 13.9167V12.75C20.3334 12.4279 20.0722 12.1667 19.7501 12.1667Z" stroke="#3392FF" stroke-width="1.5" stroke-linecap="round" stroke-linejoin="round"/>
</svg>
