<svg width="36" height="36" viewBox="0 0 36 36" fill="none" xmlns="http://www.w3.org/2000/svg">
<circle opacity="0.3" cx="18" cy="18" r="18" fill="#3392FF"/>
<path d="M22.7917 17.1934H22.689L21.6256 14.0825L12.4982 17.1934L12.2917 17.1917M12 17.194H12.2917L18.7935 12L20.4368 14.3042" stroke="#3392FF" stroke-width="1.5" stroke-linecap="square"/>
<path d="M18.9999 20.1083C18.9999 20.4951 18.8463 20.866 18.5728 21.1395C18.2993 21.413 17.9284 21.5667 17.5416 21.5667C17.1548 21.5667 16.7839 21.413 16.5104 21.1395C16.2369 20.866 16.0833 20.4951 16.0833 20.1083C16.0833 19.7216 16.2369 19.3506 16.5104 19.0771C16.7839 18.8036 17.1548 18.65 17.5416 18.65C17.9284 18.65 18.2993 18.8036 18.5728 19.0771C18.8463 19.3506 18.9999 19.7216 18.9999 20.1083Z" stroke="#3392FF" stroke-width="1.5" stroke-linecap="square"/>
<path d="M23.0833 17.1917V23.025H12V17.1917H23.0833Z" stroke="#3392FF" stroke-width="1.5" stroke-linecap="square"/>
<path d="M12 17.1917H13.1667C13.1667 17.5011 13.0438 17.7978 12.825 18.0166C12.6062 18.2354 12.3094 18.3583 12 18.3583V17.1917ZM23.0833 17.1917H21.9167C21.9167 17.5011 22.0396 17.7978 22.2584 18.0166C22.4772 18.2354 22.7739 18.3583 23.0833 18.3583V17.1917ZM12 23.025H13.1678C13.168 22.8716 13.1379 22.7197 13.0792 22.5779C13.0206 22.4362 12.9346 22.3073 12.8261 22.1989C12.7177 22.0904 12.5888 22.0044 12.4471 21.9457C12.3053 21.8871 12.1534 21.857 12 21.8572V23.025ZM23.0833 23.025H21.9167C21.9167 22.7156 22.0396 22.4188 22.2584 22.2C22.4772 21.9812 22.7739 21.8583 23.0833 21.8583V23.025Z" stroke="#3392FF" stroke-width="1.5" stroke-linecap="square"/>
</svg>
