<svg width="16" height="16" viewBox="0 0 16 16" fill="none" xmlns="http://www.w3.org/2000/svg">
<g clip-path="url(#clip0_52_378)">
<path d="M10.6667 2H0.666687V10.6667H10.6667V2Z" stroke="#3392FF" stroke-width="1.5" stroke-linecap="round" stroke-linejoin="round"/>
<path d="M10.6667 5.3335H13.3334L15.3334 7.3335V10.6668H10.6667V5.3335Z" stroke="#3392FF" stroke-width="1.5" stroke-linecap="round" stroke-linejoin="round"/>
<path d="M3.66667 13.9998C4.58714 13.9998 5.33333 13.2536 5.33333 12.3332C5.33333 11.4127 4.58714 10.6665 3.66667 10.6665C2.74619 10.6665 2 11.4127 2 12.3332C2 13.2536 2.74619 13.9998 3.66667 13.9998Z" stroke="#3392FF" stroke-width="1.5" stroke-linecap="round" stroke-linejoin="round"/>
<path d="M12.3334 13.9998C13.2538 13.9998 14 13.2536 14 12.3332C14 11.4127 13.2538 10.6665 12.3334 10.6665C11.4129 10.6665 10.6667 11.4127 10.6667 12.3332C10.6667 13.2536 11.4129 13.9998 12.3334 13.9998Z" stroke="#3392FF" stroke-width="1.5" stroke-linecap="round" stroke-linejoin="round"/>
</g>
<defs>
<clipPath id="clip0_52_378">
<rect width="16" height="16" fill="white"/>
</clipPath>
</defs>
</svg>
