<svg width="12" height="14" viewBox="0 0 12 14" fill="none" xmlns="http://www.w3.org/2000/svg">
<g clip-path="url(#clip0_21_81)">
<path d="M10.5 5.96296C10.5 9.59259 6 12.7037 6 12.7037C6 12.7037 1.5 9.59259 1.5 5.96296C1.5 4.72528 1.97411 3.5383 2.81802 2.66313C3.66193 1.78796 4.80653 1.2963 6 1.2963C7.19347 1.2963 8.33807 1.78796 9.18198 2.66313C10.0259 3.5383 10.5 4.72528 10.5 5.96296Z" stroke="white" stroke-width="1.5" stroke-linecap="round" stroke-linejoin="round"/>
<path d="M6 7.51852C6.82843 7.51852 7.5 6.82207 7.5 5.96297C7.5 5.10386 6.82843 4.40741 6 4.40741C5.17157 4.40741 4.5 5.10386 4.5 5.96297C4.5 6.82207 5.17157 7.51852 6 7.51852Z" stroke="white" stroke-width="1.5" stroke-linecap="round" stroke-linejoin="round"/>
</g>
<defs>
<clipPath id="clip0_21_81">
<rect width="12" height="14" fill="white"/>
</clipPath>
</defs>
</svg>
