<svg width="16" height="16" viewBox="0 0 16 16" fill="none" xmlns="http://www.w3.org/2000/svg">
<path d="M10.6667 3.00005H12.0001C12.3537 3.00005 12.6928 3.14052 12.9429 3.39057C13.1929 3.64062 13.3334 3.97976 13.3334 4.33338V13.6667C13.3334 14.0203 13.1929 14.3595 12.9429 14.6095C12.6928 14.8596 12.3537 15 12.0001 15H4.00008C3.64646 15 3.30732 14.8596 3.05727 14.6095C2.80722 14.3595 2.66675 14.0203 2.66675 13.6667V4.33338C2.66675 3.97976 2.80722 3.64062 3.05727 3.39057C3.30732 3.14052 3.64646 3.00005 4.00008 3.00005H5.33341" stroke="#050925" stroke-width="1.5" stroke-linecap="round" stroke-linejoin="round"/>
<path d="M9.99992 1.33337H5.99992C5.63173 1.33337 5.33325 1.63185 5.33325 2.00004V3.33337C5.33325 3.70156 5.63173 4.00004 5.99992 4.00004H9.99992C10.3681 4.00004 10.6666 3.70156 10.6666 3.33337V2.00004C10.6666 1.63185 10.3681 1.33337 9.99992 1.33337Z" stroke="#050925" stroke-width="1.5" stroke-linecap="round" stroke-linejoin="round"/>
</svg>
