<svg width="16" height="16" viewBox="0 0 16 16" fill="none" xmlns="http://www.w3.org/2000/svg">
<path d="M10.6665 3.00005H11.9998C12.3535 3.00005 12.6926 3.14052 12.9426 3.39057C13.1927 3.64062 13.3332 3.97976 13.3332 4.33338V13.6667C13.3332 14.0203 13.1927 14.3595 12.9426 14.6095C12.6926 14.8596 12.3535 15 11.9998 15H3.99984C3.64622 15 3.30708 14.8596 3.05703 14.6095C2.80698 14.3595 2.6665 14.0203 2.6665 13.6667V4.33338C2.6665 3.97976 2.80698 3.64062 3.05703 3.39057C3.30708 3.14052 3.64622 3.00005 3.99984 3.00005H5.33317" stroke="#3392FF" stroke-width="1.5" stroke-linecap="round" stroke-linejoin="round"/>
<path d="M10.0002 1.33337H6.00016C5.63197 1.33337 5.3335 1.63185 5.3335 2.00004V3.33337C5.3335 3.70156 5.63197 4.00004 6.00016 4.00004H10.0002C10.3684 4.00004 10.6668 3.70156 10.6668 3.33337V2.00004C10.6668 1.63185 10.3684 1.33337 10.0002 1.33337Z" stroke="#3392FF" stroke-width="1.5" stroke-linecap="round" stroke-linejoin="round"/>
</svg>
