<svg width="16" height="16" viewBox="0 0 16 16" fill="none" xmlns="http://www.w3.org/2000/svg">
<g clip-path="url(#clip0_254_2)">
<path d="M13.3335 1.33333H2.66683C1.93045 1.33333 1.3335 1.93028 1.3335 2.66666V5.33333C1.3335 6.06971 1.93045 6.66666 2.66683 6.66666H13.3335C14.0699 6.66666 14.6668 6.06971 14.6668 5.33333V2.66666C14.6668 1.93028 14.0699 1.33333 13.3335 1.33333Z" stroke="#3392FF" stroke-width="1.5" stroke-linecap="round" stroke-linejoin="round"/>
<path d="M13.3335 9.33333H2.66683C1.93045 9.33333 1.3335 9.93028 1.3335 10.6667V13.3333C1.3335 14.0697 1.93045 14.6667 2.66683 14.6667H13.3335C14.0699 14.6667 14.6668 14.0697 14.6668 13.3333V10.6667C14.6668 9.93028 14.0699 9.33333 13.3335 9.33333Z" stroke="#3392FF" stroke-width="1.5" stroke-linecap="round" stroke-linejoin="round"/>
<path d="M4 4H4.0075" stroke="#3392FF" stroke-width="1.5" stroke-linecap="round" stroke-linejoin="round"/>
<path d="M4 12H4.0075" stroke="#3392FF" stroke-width="1.5" stroke-linecap="round" stroke-linejoin="round"/>
</g>
<defs>
<clipPath id="clip0_254_2">
<rect width="16" height="16" fill="white"/>
</clipPath>
</defs>
</svg>
